<?xml version="1.0" encoding="utf-8"?>
<!-- Generator: Adobe Illustrator 16.0.0, SVG Export Plug-In . SVG Version: 6.00 Build 0)  -->
<!DOCTYPE svg PUBLIC "-//W3C//DTD SVG 1.1//EN" "http://www.w3.org/Graphics/SVG/1.1/DTD/svg11.dtd">
<svg version="1.1" id="Layer_1" xmlns="http://www.w3.org/2000/svg" xmlns:xlink="http://www.w3.org/1999/xlink" x="0px" y="0px"
	 width="119px" height="28px" viewBox="0 0 119 28" enable-background="new 0 0 119 28" xml:space="preserve">
<g>
	<path fill-rule="evenodd" clip-rule="evenodd" fill="#FFFFFF" d="M57.31,0.602c0.479,0.063,0.968,0.084,1.435,0.195
		c2.116,0.507,3.504,1.8,3.972,3.942c0.397,1.819,0.069,3.516-1.147,4.984c-0.599,0.722-1.366,1.22-2.188,1.642
		c-1.064,0.544-2.181,0.921-3.377,1.027c-0.96,0.085-1.895-0.008-2.775-0.442c-0.116-0.057-0.16-0.113-0.138-0.254
		c0.161-1.042,0.677-1.885,1.505-2.506c1.806-1.353,3.775-1.664,5.894-0.806c0.12,0.048,0.233,0.111,0.384,0.184
		c0.099-0.169,0.21-0.331,0.293-0.506c0.815-1.731,0.208-4.599-2.258-5.359c-1.59-0.491-3.046-0.157-4.344,0.855
		c-1.304,1.018-2.267,2.319-3.028,3.775c-0.862,1.646-1.371,3.412-1.747,5.22c-0.365,1.755-0.652,3.524-0.844,5.306
		c-0.128,1.192-0.199,2.387-0.053,3.585c0.09,0.739,0.281,1.451,0.676,2.088c0.384,0.617,0.94,1.003,1.676,1.071
		c0.495,0.046,0.936-0.147,1.353-0.395c0.209-0.124,0.427-0.2,0.672-0.156c0.427,0.075,0.729,0.316,0.869,0.724
		c0.146,0.428,0.06,0.831-0.251,1.157c-0.147,0.153-0.334,0.279-0.525,0.377c-0.891,0.457-1.83,0.727-2.843,0.673
		c-1.361-0.073-2.381-0.729-3.128-1.844c-0.113-0.17-0.21-0.35-0.33-0.55c-0.055,0.103-0.103,0.19-0.151,0.279
		c-0.673,1.248-1.732,1.951-3.114,2.174c-1.036,0.166-2.056,0.091-3.028-0.336c-1.004-0.439-1.707-1.193-2.201-2.157
		c-0.033-0.064-0.071-0.128-0.115-0.206c-0.219,0.251-0.421,0.493-0.633,0.726c-0.886,0.964-1.981,1.58-3.238,1.914
		c-1.518,0.402-3.048,0.487-4.583,0.111c-1.72-0.422-3.121-1.311-4.065-2.847c-0.019-0.03-0.044-0.057-0.055-0.07
		c-0.344,0.372-0.664,0.763-1.027,1.104c-1.256,1.186-2.766,1.817-4.479,1.957c-1.385,0.113-2.753,0.012-4.079-0.436
		c-2.156-0.727-3.396-2.252-3.789-4.464c-0.276-1.557-0.253-3.112,0.216-4.641c0.755-2.46,2.789-4.129,5.348-4.401
		c0.859-0.091,1.708-0.068,2.541,0.191c1.507,0.469,2.416,1.464,2.638,3.041c0.195,1.383-0.168,2.611-1.112,3.646
		c-0.737,0.809-1.694,1.238-2.745,1.471c-1.15,0.254-2.31,0.293-3.477,0.119c-0.278-0.042-0.395,0.082-0.351,0.381
		c0.155,1.05,0.737,1.798,1.658,2.288c0.864,0.46,1.805,0.589,2.77,0.616c1.052,0.03,2.032-0.193,2.924-0.76
		c0.964-0.612,1.647-1.478,2.181-2.469c0.047-0.088,0.03-0.217,0.021-0.326c-0.07-0.855-0.083-1.71,0.047-2.562
		c0.288-1.868,1.089-3.441,2.669-4.551c0.974-0.685,2.073-1.022,3.25-1.114c0.869-0.067,1.723,0.006,2.545,0.32
		c1.364,0.521,2.15,1.506,2.342,2.955c0.197,1.487-0.223,2.775-1.305,3.824c-0.711,0.69-1.591,1.067-2.545,1.277
		c-1.156,0.255-2.322,0.294-3.495,0.119c-0.24-0.036-0.362,0.067-0.338,0.307c0.078,0.774,0.468,1.375,1.075,1.841
		c0.595,0.456,1.287,0.688,2.017,0.809c0.987,0.164,1.975,0.204,2.957-0.035c1.27-0.312,2.204-1.084,2.947-2.133
		c0.309-0.436,0.449-0.879,0.447-1.426c-0.008-1.86,0.453-3.6,1.549-5.131c1.091-1.525,2.595-2.383,4.438-2.653
		c1.095-0.161,2.189-0.126,3.279,0.069c0.012,0.002,0.024-0.003,0.053-0.008c0.469-1.912,0.978-3.819,1.818-5.633
		c-0.312,0-0.607,0.007-0.902-0.001c-0.875-0.022-1.731-0.154-2.538-0.509c-1.217-0.534-1.981-1.497-2.489-2.69
		c-0.215-0.504-0.361-1.029-0.389-1.581c-0.002-0.037-0.005-0.074-0.003-0.111c0-0.017,0.01-0.035,0.013-0.042
		c0.289,0,0.573-0.014,0.855,0.002c0.852,0.05,1.684,0.205,2.491,0.494c1.437,0.515,2.366,1.523,2.872,2.942
		c0.121,0.338,0.213,0.686,0.311,1.006c0.179-0.407,0.342-0.846,0.557-1.257c0.96-1.841,2.276-3.366,4.072-4.442
		c0.911-0.546,1.895-0.888,2.964-0.954c0.061-0.004,0.122-0.018,0.183-0.027C57.012,0.602,57.161,0.602,57.31,0.602z M46.663,15.427
		c-0.069-0.013-0.118-0.025-0.167-0.031c-0.606-0.067-1.211-0.086-1.818-0.008c-1.563,0.204-2.781,0.972-3.597,2.308
		c-0.689,1.129-0.933,2.396-0.896,3.711c0.026,0.943,0.313,1.799,0.933,2.533c0.677,0.804,1.971,1.029,2.815,0.476
		c0.389-0.255,0.666-0.612,0.894-1.008c0.533-0.923,0.838-1.935,1.037-2.97c0.246-1.284,0.432-2.579,0.64-3.87
		C46.563,16.195,46.608,15.821,46.663,15.427z M16.865,19.784c0.6-0.019,1.191-0.072,1.762-0.262c0.897-0.3,1.551-0.845,1.785-1.8
		c0.245-1.002-0.199-1.855-1.128-2.091c-1.046-0.265-2-0.043-2.791,0.706c-0.833,0.791-1.167,1.802-1.209,2.929
		c-0.006,0.182,0.067,0.281,0.224,0.338c0.081,0.029,0.164,0.063,0.249,0.072C16.125,19.717,16.495,19.75,16.865,19.784z
		 M29.571,19.784c0.607-0.016,1.205-0.069,1.781-0.262c0.925-0.309,1.584-0.88,1.801-1.872c0.21-0.959-0.24-1.779-1.145-2.02
		c-0.871-0.23-1.71-0.106-2.445,0.428c-1.107,0.805-1.519,1.961-1.547,3.283c-0.002,0.076,0.08,0.179,0.152,0.228
		c0.089,0.06,0.205,0.093,0.312,0.106C28.844,19.72,29.208,19.749,29.571,19.784z"/>
	<path fill-rule="evenodd" clip-rule="evenodd" fill="#FFFFFF" d="M1.058,24.443c0.204-0.926,1.252-0.925,1.899-0.573
		c0.517,0.281,1.04,0.556,1.583,0.774c0.807,0.325,1.647,0.459,2.513,0.244c0.47-0.117,0.899-0.318,1.265-0.643
		c0.899-0.797,0.779-2.128-0.248-2.762c-0.486-0.301-1.038-0.399-1.585-0.504c-1.017-0.194-2.04-0.376-3.007-0.755
		c-0.405-0.159-0.8-0.373-1.153-0.626c-0.625-0.45-0.932-1.106-0.993-1.862c-0.1-1.224,0.195-2.331,1.06-3.239
		c0.594-0.625,1.339-1.001,2.168-1.201c1.686-0.404,3.367-0.389,5.032,0.123c0.494,0.152,0.951,0.379,1.219,0.854
		c0.099,0.175,0.189,0.369,0.224,0.565c0.149,0.847-0.476,1.452-1.321,1.282c-0.203-0.041-0.413-0.113-0.586-0.225
		c-0.714-0.461-1.507-0.611-2.337-0.637c-0.554-0.016-1.09,0.059-1.586,0.322c-0.64,0.34-1.013,0.862-1.049,1.598
		c-0.018,0.359,0.118,0.655,0.399,0.879c0.394,0.314,0.864,0.454,1.34,0.572c0.877,0.219,1.763,0.407,2.635,0.646
		c0.729,0.199,1.41,0.511,1.981,1.027c0.585,0.528,0.877,1.196,0.982,1.968c0.224,1.638-0.719,3.951-3.269,4.66
		c-2.197,0.61-4.286,0.271-6.246-0.881c-0.49-0.288-0.792-0.718-0.919-1.272C1.058,24.667,1.058,24.556,1.058,24.443z"/>
	<path fill-rule="evenodd" clip-rule="evenodd" fill="#FFFFFF" d="M104.025,27.461c-0.4-0.037-0.804-0.056-1.202-0.115
		c-1.278-0.189-2.47-0.629-3.575-1.298c-0.044-0.026-0.094-0.107-0.084-0.151c0.143-0.628,0.295-1.254,0.446-1.881
		c0.004-0.017,0.02-0.03,0.013-0.021c0.606,0.283,1.196,0.591,1.81,0.836c1.079,0.431,2.203,0.633,3.369,0.506
		c0.627-0.069,1.213-0.244,1.677-0.713c0.512-0.518,0.757-1.793,0.099-2.396c-0.272-0.251-0.602-0.475-0.944-0.608
		c-0.716-0.275-1.455-0.489-2.188-0.716c-0.97-0.299-1.87-0.715-2.637-1.401c-1.856-1.666-1.441-4.739,0.701-5.936
		c1.066-0.596,2.218-0.767,3.416-0.689c1.265,0.082,2.435,0.492,3.56,1.056c0.074,0.038,0.136,0.06,0.106,0.174
		c-0.153,0.601-0.297,1.204-0.444,1.806c-0.006,0.023-0.02,0.045-0.027,0.062c-0.379-0.178-0.747-0.368-1.128-0.526
		c-0.934-0.386-1.9-0.607-2.919-0.543c-0.423,0.028-0.834,0.104-1.229,0.27c-1.159,0.485-1.241,2.144-0.322,2.784
		c0.444,0.31,0.935,0.51,1.445,0.667c0.64,0.196,1.291,0.355,1.923,0.572c0.87,0.297,1.672,0.723,2.342,1.371
		c0.893,0.865,1.178,1.918,0.994,3.127c-0.292,1.919-1.65,3.157-3.522,3.569c-0.464,0.102-0.945,0.119-1.419,0.175
		c-0.049,0.006-0.098,0.013-0.146,0.02C104.1,27.461,104.062,27.461,104.025,27.461z"/>
	<path fill-rule="evenodd" clip-rule="evenodd" fill="#FFFFFF" d="M97.426,23.798c0.276,0.503,0.548,0.989,0.808,1.481
		c0.021,0.037-0.026,0.136-0.069,0.176c-0.716,0.654-1.548,1.114-2.461,1.426c-1.505,0.516-3.047,0.715-4.615,0.375
		c-2.125-0.461-3.667-1.707-4.562-3.672c-1.056-2.315-1.111-4.688-0.001-6.999c0.999-2.079,2.687-3.351,4.983-3.667
		c1.854-0.255,3.557,0.187,4.965,1.484c0.901,0.831,1.394,1.881,1.556,3.093c0.098,0.736,0,1.46-0.126,2.183
		c-0.009,0.049-0.085,0.098-0.142,0.122c-0.048,0.021-0.109,0.005-0.166,0.005c-3.054,0-6.108,0-9.162,0c-0.085,0-0.17,0-0.253,0
		c-0.153,2.222,0.795,4.908,3.976,5.431c1.894,0.31,3.553-0.223,5.081-1.302C97.292,23.895,97.347,23.854,97.426,23.798z
		 M88.371,17.945c2.457,0,4.897,0,7.337,0c0.008-0.027,0.013-0.046,0.017-0.063c0.003-0.019,0.005-0.037,0.005-0.055
		c-0.001-1.049-0.422-1.878-1.32-2.43c-0.81-0.499-1.706-0.61-2.636-0.497c-1.657,0.202-2.92,1.288-3.372,2.893
		C88.389,17.839,88.383,17.887,88.371,17.945z"/>
	<path fill-rule="evenodd" clip-rule="evenodd" fill="#FFFFFF" d="M62.689,11.844c0.057,1.173,0.112,2.327,0.165,3.443
		c0.162-0.144,0.336-0.29,0.502-0.444c1.267-1.176,2.74-1.888,4.481-1.979c0.889-0.046,1.759,0.08,2.577,0.451
		c1.304,0.59,2.043,1.645,2.427,2.986c0.205,0.715,0.289,1.448,0.291,2.188c0.007,2.75,0.003,5.499,0.003,8.25
		c0,0.06,0,0.12,0,0.194c-0.797,0-1.576,0-2.383,0c0-0.078,0-0.156,0-0.234c0-2.663,0.003-5.326-0.003-7.988
		c-0.001-0.678-0.071-1.35-0.324-1.988c-0.374-0.947-1.076-1.511-2.074-1.616c-2.036-0.215-3.638,0.596-4.844,2.211
		c-0.364,0.489-0.5,1.071-0.5,1.685c0.003,2.563,0.002,5.128,0.002,7.691c0,0.074,0,0.147,0,0.236c-0.793,0-1.577,0-2.383,0
		c0-0.065,0-0.131,0-0.197c0-4.574,0-9.149-0.005-13.725c0-0.15,0.05-0.206,0.183-0.266c0.592-0.268,1.175-0.555,1.761-0.835
		C62.598,11.89,62.63,11.874,62.689,11.844z"/>
	<path fill-rule="evenodd" clip-rule="evenodd" fill="#FFFFFF" d="M79.829,23.76c0.349-0.843,0.684-1.649,1.018-2.456
		c1.07-2.589,2.142-5.177,3.208-7.767c0.052-0.127,0.111-0.18,0.255-0.179c0.683,0.008,1.365,0.003,2.049,0.004
		c0.054,0,0.107,0.006,0.187,0.012c-0.184,0.429-0.358,0.838-0.534,1.247c-1.758,4.088-3.516,8.175-5.271,12.264
		c-0.053,0.122-0.111,0.179-0.256,0.176c-0.483-0.01-0.969-0.008-1.453-0.001c-0.118,0.001-0.173-0.039-0.219-0.146
		c-1.914-4.459-3.832-8.917-5.748-13.375c-0.021-0.05-0.039-0.103-0.067-0.178c0.081,0,0.142,0,0.202,0
		c0.701,0,1.403,0.004,2.104-0.003c0.143-0.001,0.205,0.049,0.258,0.175c1.389,3.336,2.781,6.669,4.173,10.002
		C79.76,23.599,79.786,23.66,79.829,23.76z"/>
	<path fill-rule="evenodd" clip-rule="evenodd" fill="#FFFFFF" d="M109.585,15.323c0-0.664,0-1.3,0-1.96c0.681,0,1.353,0,2.038,0
		c0-1.232,0-2.441,0-3.673c0.794-0.155,1.579-0.309,2.385-0.467c0,1.389,0,2.752,0,4.138c1.123,0,2.23,0,3.349,0
		c0,0.659,0,1.295,0,1.951c-1.11,0-2.218,0-3.348,0c0,0.085,0,0.15,0,0.216c0,2.489-0.007,4.979,0.007,7.467
		c0.002,0.45,0.053,0.906,0.15,1.344c0.146,0.652,0.541,0.925,1.211,0.92c0.695-0.007,1.328-0.219,1.912-0.589
		c0.066-0.043,0.135-0.083,0.218-0.134c0.022,0.061,0.041,0.104,0.055,0.149c0.084,0.279,0.166,0.559,0.249,0.838
		c0.135,0.456,0.138,0.459-0.238,0.764c-1.112,0.906-2.388,1.14-3.763,0.855c-0.901-0.187-1.464-0.789-1.785-1.633
		c-0.254-0.669-0.341-1.368-0.379-2.076c-0.011-0.211-0.019-0.422-0.019-0.633c-0.002-2.414-0.001-4.829-0.001-7.243
		c0-0.073,0-0.146,0-0.233C110.942,15.323,110.274,15.323,109.585,15.323z"/>
	<path fill-rule="evenodd" clip-rule="evenodd" fill="#FFFFFF" d="M55.989,13.927c0.794-0.16,1.571-0.316,2.359-0.475
		c0,4.494,0,8.983,0,13.483c-0.788,0-1.567,0-2.359,0C55.989,22.597,55.989,18.263,55.989,13.927z"/>
</g>
</svg>
